<svg width="209" height="96" viewBox="0 0 209 96" fill="none" xmlns="http://www.w3.org/2000/svg">
<g clip-path="url(#clip0_517:454)">
<path d="M109.237 43.3152H111.106C111.283 43.3154 111.458 43.281 111.622 43.2137C111.785 43.1465 111.934 43.0478 112.059 42.9233C112.184 42.7989 112.283 42.651 112.351 42.4883C112.419 42.3255 112.454 42.151 112.454 41.9749V28.1885C112.453 27.8328 112.311 27.4919 112.058 27.2406C111.806 26.9893 111.463 26.8481 111.106 26.8481H109.237C108.88 26.8487 108.538 26.9901 108.286 27.2413C108.034 27.4926 107.892 27.8332 107.891 28.1885V41.9749C107.891 42.3303 108.033 42.6712 108.285 42.9226C108.538 43.174 108.88 43.3152 109.237 43.3152" fill="#EE0033"/>
<path d="M96.2302 43.5015C97.3614 43.5015 98.6882 43.4408 99.3842 42.0355L107.263 26.8418H104.382C103.823 26.8458 103.277 27.009 102.808 27.3122C102.339 27.6153 101.966 28.0458 101.735 28.5528L96.7706 39.0638C96.6529 39.3109 96.4195 39.7151 96.2239 39.7151C96.0284 39.7151 95.8034 39.3109 95.6793 39.0638L90.6898 28.5591C90.4572 28.053 90.0847 27.6234 89.6159 27.3204C89.1471 27.0174 88.6014 26.8536 88.0426 26.8481H85.1558L93.0343 42.0418C93.8143 43.5329 95.4123 43.5078 96.2302 43.5078" fill="#EE0033"/>
<path d="M195.959 43.3151C196.316 43.3151 196.658 43.1739 196.911 42.9226C197.163 42.6712 197.305 42.3303 197.305 41.9748V40.5089H196.174C195.356 40.5089 193.651 40.4774 192.627 39.7947C191.3 38.9235 191.418 37.3696 191.418 36.2513V24.3141C191.418 23.9581 191.276 23.6166 191.023 23.3649C190.77 23.1131 190.427 22.9717 190.07 22.9717H188.203C187.845 22.9717 187.502 23.1131 187.25 23.3649C186.997 23.6166 186.855 23.9581 186.855 24.3141V37.9267C186.855 40.0083 187.597 41.2188 188.922 42.09C190.209 42.9277 191.691 43.3005 194.458 43.3005L195.959 43.3151Z" fill="#EE0033"/>
<path d="M138.823 37.9411C138.823 40.0228 139.563 41.2332 140.89 42.1044C142.177 42.9421 143.659 43.3149 146.426 43.3149H147.927C148.284 43.3149 148.627 43.1737 148.879 42.9223C149.131 42.671 149.273 42.3301 149.273 41.9746V40.5086H148.142C147.322 40.5086 145.619 40.4772 144.593 39.7945C143.268 38.9233 143.384 37.3694 143.384 36.251V29.6395H152.9V37.9369C152.9 40.0186 153.64 41.229 154.967 42.1003C156.252 42.9379 157.734 43.3107 160.503 43.3107H162.002C162.179 43.311 162.354 43.2765 162.518 43.2093C162.681 43.142 162.83 43.0433 162.955 42.9188C163.08 42.7943 163.179 42.6464 163.246 42.4837C163.314 42.3209 163.348 42.1465 163.348 41.9704V40.5044H162.219C161.401 40.5044 159.685 40.473 158.67 39.7903C157.345 38.9191 157.463 37.3652 157.463 36.2469V29.6395H161.878C162.235 29.6395 162.577 29.4983 162.83 29.247C163.082 28.9956 163.224 28.6547 163.224 28.2992V26.8332H157.454V24.3243C157.454 23.9687 157.313 23.6275 157.06 23.3759C156.808 23.1242 156.466 22.9825 156.109 22.9819H154.24C154.063 22.9819 153.887 23.0167 153.724 23.0842C153.561 23.1516 153.412 23.2506 153.287 23.3752C153.162 23.4999 153.063 23.6479 152.996 23.8108C152.928 23.9736 152.894 24.1482 152.894 24.3243V26.8479H143.375V24.3243C143.376 24.1482 143.341 23.9736 143.273 23.8108C143.206 23.6479 143.107 23.4999 142.982 23.3752C142.857 23.2506 142.708 23.1516 142.545 23.0842C142.382 23.0167 142.207 22.9819 142.03 22.9819H140.16C139.803 22.9825 139.461 23.1242 139.209 23.3759C138.956 23.6275 138.815 23.9687 138.815 24.3243V26.8479H135.968V28.3139C135.968 28.6693 136.11 29.0103 136.362 29.2616C136.614 29.513 136.957 29.6542 137.313 29.6542H138.823V37.9411Z" fill="#EE0033"/>
<path d="M133.987 35.6713C134.843 34.9886 134.961 34.0252 134.961 33.1875C134.961 31.1058 134.454 29.0535 132.038 27.843C130.127 26.8797 127.622 26.7959 125.213 26.7959C123.264 26.7959 119.746 26.7959 117.492 28.3498C115.238 29.9038 115.028 32.153 115.028 35.2378C115.028 37.4116 115.146 39.6797 116.5 41.2336C118.215 43.1603 120.705 43.3153 122.808 43.3153H132.936C133.113 43.3156 133.288 43.2811 133.451 43.2138C133.614 43.1466 133.763 43.0478 133.888 42.9233C134.013 42.7988 134.112 42.6509 134.18 42.4882C134.247 42.3255 134.282 42.151 134.281 41.975V40.509H124.189C122.507 40.509 120.602 40.3226 120.017 38.5509C119.835 37.8085 119.744 37.047 119.744 36.2828H131.754C132.572 36.2828 133.352 36.1593 133.977 35.6545L133.987 35.6713ZM129.22 33.4975H122.732C121.083 33.4975 119.746 34.2493 119.746 35.1729V33.4975C119.784 32.4106 119.746 31.5079 120.682 30.6702C121.929 29.5519 123.802 29.5833 125.009 29.5833C126.296 29.5833 127.778 29.6462 128.909 30.3289C129.3 30.5539 129.627 30.8745 129.859 31.2604C130.091 31.6462 130.22 32.0847 130.234 32.5341C130.234 32.9697 130.118 33.4975 129.22 33.4975" fill="#EE0033"/>
<path d="M172.154 43.3149H182.271C182.448 43.3152 182.623 43.2807 182.787 43.2135C182.95 43.1462 183.099 43.0475 183.224 42.923C183.349 42.7985 183.448 42.6506 183.515 42.4879C183.583 42.3251 183.617 42.1507 183.617 41.9746V40.5087H173.516C171.834 40.5087 169.929 40.3223 169.344 38.5505C169.164 37.8079 169.072 37.0466 169.071 36.2825H181.085C181.903 36.2825 182.683 36.1589 183.308 35.6542C184.166 34.9715 184.284 34.0081 184.284 33.1704C184.284 31.0888 183.777 29.0364 181.359 27.8259C179.448 26.8626 176.943 26.7788 174.534 26.7788C172.585 26.7788 169.067 26.7788 166.813 28.3327C164.559 29.8867 164.355 32.1526 164.355 35.2375C164.355 37.4113 164.473 39.6793 165.837 41.2333C167.553 43.16 170.043 43.3149 172.145 43.3149H172.154ZM169.073 33.4971C169.113 32.4102 169.073 31.5076 170.009 30.6699C171.258 29.5516 173.129 29.583 174.338 29.583C175.625 29.583 177.105 29.6458 178.236 30.3285C178.628 30.5533 178.955 30.8738 179.187 31.2597C179.419 31.6456 179.549 32.0841 179.563 32.5338C179.563 32.9694 179.445 33.4971 178.548 33.4971H172.059C170.411 33.4971 169.073 34.249 169.073 35.1725V33.4971Z" fill="#EE0033"/>
<path d="M110.172 25.2941H111.106C111.463 25.2941 111.806 25.1527 112.059 24.9009C112.312 24.6492 112.454 24.3077 112.454 23.9517V23.581C112.454 23.4048 112.419 23.2304 112.351 23.0676C112.283 22.9049 112.184 22.757 112.059 22.6326C111.934 22.5081 111.785 22.4094 111.622 22.3421C111.458 22.2749 111.283 22.2404 111.106 22.2407H109.239C109.062 22.2404 108.887 22.2749 108.723 22.3421C108.56 22.4094 108.411 22.5081 108.286 22.6326C108.161 22.757 108.061 22.9049 107.994 23.0676C107.926 23.2304 107.891 23.4048 107.891 23.581V26.8481H107.914C108.042 26.0878 108.911 25.2941 110.177 25.2941" fill="#EE0033"/>
<path d="M85.1558 68.4042V54.7204C85.1558 52.8537 86.3045 51.9204 88.6019 51.9204H106.167C108.667 51.9204 110.605 52.3455 111.983 53.1958C113.361 54.0461 114.051 55.4974 114.052 57.5497V65.8701C114.046 66.5493 113.771 67.1984 113.285 67.6751C112.799 68.1518 112.143 68.417 111.462 68.4126H109.569V58.5131C109.569 57.23 109.238 56.2764 108.575 55.6523C107.912 55.0283 106.827 54.7176 105.32 54.7204H101.842V65.9455C101.837 66.6022 101.571 67.2301 101.101 67.6911C100.631 68.1522 99.9972 68.4086 99.3379 68.4042H97.3635V54.7204H90.7824C90.017 54.7204 89.6343 55.0311 89.6343 55.6523V65.9413C89.6321 66.2671 89.5655 66.5893 89.4382 66.8895C89.3109 67.1896 89.1255 67.4618 88.8925 67.6905C88.6596 67.9193 88.3837 68.1 88.0805 68.2225C87.7774 68.3449 87.453 68.4067 87.1259 68.4042H85.1558Z" fill="black"/>
<path d="M139.639 68.4042V54.7204C139.639 52.8537 140.787 51.9204 143.083 51.9204H150.2C152.699 51.9204 154.639 52.3455 156.018 53.1958C157.397 54.0461 158.086 55.4974 158.085 57.5497V68.4042H153.606V58.5131C153.606 57.23 153.275 56.2764 152.612 55.6523C151.949 55.0283 150.865 54.7176 149.359 54.7204H145.265C144.497 54.7204 144.114 55.0311 144.115 55.6523V68.4042H139.639Z" fill="black"/>
<path d="M202.704 51.9204L190.612 73.7235H186.058L189.157 68.3434L180.126 51.9204H182.359C183.076 51.9177 183.779 52.1118 184.393 52.4812C185.006 52.8507 185.505 53.3812 185.835 54.0146L191.262 64.5738L197.137 53.778C197.447 53.2123 197.905 52.7405 198.463 52.4125C199.02 52.0844 199.656 51.9123 200.303 51.9141L202.704 51.9204Z" fill="black"/>
<path d="M137.637 60.2553C137.637 63.4497 136.789 65.6578 135.093 66.8794C133.397 68.1011 130.645 68.7126 126.838 68.714C123.037 68.714 120.288 68.1025 118.592 66.8794C116.896 65.6564 116.049 63.4484 116.052 60.2553C116.052 57.1028 116.907 54.915 118.617 53.692C120.327 52.4689 123.067 51.8574 126.838 51.8574C130.614 51.8574 133.358 52.4689 135.068 53.692C136.778 54.915 137.632 57.1028 137.631 60.2553H137.637ZM120.678 60.2553C120.678 62.3077 121.137 63.7639 122.055 64.6239C122.973 65.484 124.567 65.9147 126.838 65.9161C129.109 65.9161 130.703 65.4854 131.622 64.6239C132.54 63.7625 133 62.3063 133.001 60.2553C133.001 58.2225 132.541 56.781 131.622 55.9307C130.702 55.0805 129.108 54.6553 126.838 54.6553C124.567 54.6553 122.973 55.0805 122.055 55.9307C121.137 56.781 120.678 58.2225 120.678 60.2553Z" fill="black"/>
<path d="M168.129 68.2701H178.142C178.317 68.2704 178.49 68.2363 178.652 68.1698C178.814 68.1033 178.961 68.0057 179.084 67.8826C179.208 67.7594 179.306 67.6132 179.373 67.4522C179.44 67.2913 179.475 67.1187 179.475 66.9444V65.5036H169.479C167.82 65.5036 165.93 65.3193 165.352 63.5664C165.172 62.8322 165.081 62.0792 165.08 61.3235H176.962C177.774 61.3235 178.546 61.1999 179.162 60.7078C180.003 60.0313 180.127 59.0785 180.127 58.2491C180.127 56.1905 179.624 54.1612 177.234 52.9612C175.341 52.0104 172.873 51.9141 170.482 51.9141C168.552 51.9141 165.08 51.9141 162.843 53.4491C160.606 54.9842 160.413 57.2313 160.413 60.2743C160.413 62.4251 160.528 64.6722 161.884 66.2073C163.581 68.113 166.05 68.2659 168.133 68.2659L168.129 68.2701ZM165.085 58.5528C165.125 57.4764 165.085 56.5863 166.01 55.7549C167.246 54.6491 169.096 54.6806 170.293 54.6806C171.565 54.6806 173.026 54.7413 174.151 55.4177C174.538 55.6404 174.862 55.9576 175.091 56.3394C175.321 56.7213 175.449 57.1551 175.463 57.5999C175.463 58.0292 175.347 58.5528 174.46 58.5528H168.037C166.405 58.5528 165.08 59.2963 165.08 60.2135L165.085 58.5528Z" fill="black"/>
</g>
<g clip-path="url(#clip1_517:454)">
<path d="M40.1599 81.5079C58.7398 81.5079 73.8018 66.5059 73.8018 48C73.8018 29.4942 58.7398 14.4922 40.1599 14.4922C21.58 14.4922 6.51807 29.4942 6.51807 48C6.51807 66.5059 21.58 81.5079 40.1599 81.5079Z" fill="#EE0033"/>
<path d="M36.4927 27.0063H31.9453C30.7929 27.0063 29.6877 27.4623 28.8728 28.274C28.0579 29.0856 27.6001 30.1864 27.6001 31.3343V64.6744C27.6001 65.2427 27.7125 65.8055 27.9309 66.3306C28.1492 66.8557 28.4693 67.3328 28.8728 67.7347C29.2763 68.1365 29.7553 68.4553 30.2825 68.6728C30.8097 68.8903 31.3747 69.0023 31.9453 69.0023H36.4927C36.6353 69.0023 36.7766 68.9743 36.9084 68.9199C37.0402 68.8656 37.1599 68.7859 37.2608 68.6854C37.3617 68.5849 37.4417 68.4656 37.4963 68.3344C37.5509 68.2031 37.579 68.0624 37.579 67.9203V64.6827C37.579 64.3958 37.4645 64.1206 37.2608 63.9177C37.0571 63.7148 36.7808 63.6008 36.4927 63.6008H29.4338V32.4016H36.4927C36.7804 32.3994 37.0555 32.2835 37.2576 32.0795C37.4597 31.8755 37.5722 31.5999 37.5706 31.3133V28.0883C37.5706 27.8028 37.4573 27.5289 37.2554 27.3262C37.0535 27.1235 36.7793 27.0086 36.4927 27.0063Z" fill="white"/>
<path d="M48.3747 27.0064H43.8274C43.5396 27.0069 43.2639 27.1212 43.0606 27.324C42.8573 27.5269 42.7432 27.8017 42.7432 28.0883V31.3133C42.7432 31.5999 42.8573 31.8748 43.0606 32.0776C43.2639 32.2805 43.5396 32.3947 43.8274 32.3953H50.8884V63.605H43.8274C43.5396 63.6055 43.2639 63.7198 43.0606 63.9226C42.8573 64.1255 42.7432 64.4004 42.7432 64.687V67.9182C42.7432 68.2048 42.8573 68.4797 43.0606 68.6826C43.2639 68.8854 43.5396 68.9997 43.8274 69.0002H48.3747C48.9464 69.0013 49.5127 68.8901 50.0411 68.6728C50.5695 68.4555 51.0497 68.1365 51.4542 67.7341C51.8586 67.3316 52.1793 66.8537 52.398 66.3276C52.6166 65.8014 52.7289 65.2375 52.7283 64.6681V31.3343C52.7284 30.7652 52.6157 30.2018 52.3968 29.6761C52.1779 29.1505 51.8571 28.673 51.4527 28.271C51.0483 27.869 50.5683 27.5504 50.0401 27.3334C49.512 27.1164 48.946 27.0053 48.3747 27.0064V27.0064Z" fill="white"/>
</g>
<defs>
<clipPath id="clip0_517:454">
<rect width="117.536" height="67.0157" fill="white" transform="translate(85.1558 14.4922)"/>
</clipPath>
<clipPath id="clip1_517:454">
<rect width="67.2837" height="67.0157" fill="white" transform="translate(6.51807 14.4922)"/>
</clipPath>
</defs>
</svg>