<svg id="a0193a6a-c35f-4d72-b8d8-74d543e7d4a8" data-name="a8edb1cd-7871-43db-815f-f49db98edf32" xmlns="http://www.w3.org/2000/svg" xmlns:xlink="http://www.w3.org/1999/xlink" width="48" height="47.1" viewBox="0 0 48 47.1">
  <defs>
    <linearGradient id="ace652f9-30a5-4be5-861d-813db5b21cc3" y1="-2181.55" x2="48" y2="-2181.55" gradientTransform="matrix(1, 0, 0, -1, 0, -2158)" gradientUnits="userSpaceOnUse">
      <stop offset="0" stop-color="#ef4d53"/>
      <stop offset="1" stop-color="#eb1d36"/>
    </linearGradient>
    <linearGradient id="a8abd63d-7a24-4921-ae8e-c6a11db8a00c" x1="252.02" y1="-72.79" x2="274.51" y2="-72.79" gradientTransform="translate(-238.47 96.92) rotate(-0.13)" xlink:href="#ace652f9-30a5-4be5-861d-813db5b21cc3"/>
  </defs>
  <g>
    <path d="M24,47.1A23.8,23.8,0,0,1,0,23.55,23.8,23.8,0,0,1,24,0,23.8,23.8,0,0,1,48,23.55a23,23,0,0,1-3.71,12.58,1.89,1.89,0,0,1-2.76.47h0a1.93,1.93,0,0,1-.45-2.53,19.3,19.3,0,0,0,3.11-10.52A20,20,0,0,0,24,3.81,20,20,0,0,0,3.81,23.55,20,20,0,0,0,24,43.29a20.41,20.41,0,0,0,11.44-3.5,1.91,1.91,0,0,1,2.55.39h0a1.92,1.92,0,0,1-.4,2.79A24.48,24.48,0,0,1,24,47.1Z" transform="translate(0 0)" fill="url(#ace652f9-30a5-4be5-861d-813db5b21cc3)"/>
    <path d="M35.84,32.13a1.92,1.92,0,0,0-.51-.91c-.51-.5-1.13-1.16-2.77-2.81a2,2,0,0,0-2-.49l-.08,0c-.14-.12-1.17-1.15-1.23-1.23A8.9,8.9,0,1,0,15,26.27a3.46,3.46,0,0,0,.22.31l.24.3.25.29.27.28.27.26.29.26.3.24.31.23.31.21.33.21.33.18.35.17.34.16.36.14.36.13.37.11a2.22,2.22,0,0,0,.37.09l.37.08L21,30l.38,0,.38,0h.77l.38,0,.38,0,.38-.05.38-.07.37-.08.37-.1.37-.12.36-.13.35-.15.35-.16.34-.18.33-.19.32-.21.32-.22.29-.22,1.25,1.24,0,.14a1.93,1.93,0,0,0,.09,1.3,2,2,0,0,0,.45.62c2.13,2.13.58.63,2.71,2.76l.11.1a1.81,1.81,0,0,0,1.19.5A1.88,1.88,0,0,0,35,34.28c.13-.12.26-.25.38-.38A1.91,1.91,0,0,0,35.84,32.13ZM22.36,27.82a6.55,6.55,0,1,1,6.55-6.54A6.56,6.56,0,0,1,22.36,27.82Z" transform="translate(0 0)" fill="url(#a8abd63d-7a24-4921-ae8e-c6a11db8a00c)"/>
  </g>
</svg>
